<svg xmlns="http://www.w3.org/2000/svg" viewBox="0 0 160 96" role="img" aria-labelledby="t d"><title id="t">Зони поливу</title><desc id="d">Схематичне міні-зображення кількох зон крапельного поливу</desc><rect x="2" y="2" width="156" height="92" rx="14" fill="#0b1c23" stroke="#21424d"/><path d="M19 69h122" stroke="#1e5968" stroke-width="2"/><path d="M28 58v11M62 58v11M96 58v11M130 58v11" stroke="#44d1f1" stroke-width="2.5"/><path d="M28 58c-8-10-8-19 0-28 8 9 8 18 0 28zm34 0c-8-10-8-19 0-28 8 9 8 18 0 28zm34 0c-8-10-8-19 0-28 8 9 8 18 0 28zm34 0c-8-10-8-19 0-28 8 9 8 18 0 28z" fill="none" stroke="#37cbed" stroke-width="2"/><path d="M28 27v-8m34 8v-8m34 8v-8m34 8v-8" stroke="#2daecb" stroke-width="2"/><path d="M21 22c5-4 9-4 14 0M55 22c5-4 9-4 14 0M89 22c5-4 9-4 14 0M123 22c5-4 9-4 14 0" fill="none" stroke="#62def7" stroke-width="2" stroke-linecap="round"/><circle cx="28" cy="74" r="3" fill="#38c9ec"/><circle cx="62" cy="74" r="3" fill="#38c9ec"/><circle cx="96" cy="74" r="3" fill="#38c9ec"/><circle cx="130" cy="74" r="3" fill="#38c9ec"/></svg>