<svg xmlns="http://www.w3.org/2000/svg" viewBox="0 0 160 96" role="img" aria-labelledby="t d"><title id="t">Джерело води, насос і фільтрація</title><desc id="d">Схематичне міні-зображення резервуара води, насоса та фільтра</desc><defs><linearGradient id="g" x1="0" x2="1"><stop stop-color="#22c7ee"/><stop offset="1" stop-color="#57d7f4"/></linearGradient></defs><rect x="2" y="2" width="156" height="92" rx="14" fill="#0b1c23" stroke="#21424d"/><path d="M17 30h38v31H17z" fill="#0d2a34" stroke="#35caee" stroke-width="2"/><path d="M20 48c9-5 22 5 32 0v10H20z" fill="#0d7896" opacity=".7"/><path d="M55 46h19" stroke="#4cd6f4" stroke-width="3" stroke-linecap="round"/><circle cx="88" cy="46" r="14" fill="#102d36" stroke="#38c9ec" stroke-width="2"/><circle cx="88" cy="46" r="5" fill="#38c9ec"/><path d="M102 46h15" stroke="#4cd6f4" stroke-width="3" stroke-linecap="round"/><rect x="117" y="25" width="21" height="42" rx="8" fill="#102d36" stroke="#38c9ec" stroke-width="2"/><path d="M121 34h13M121 42h13M121 50h13M121 58h13" stroke="#69dff7" stroke-width="1.6"/><path d="M138 46h8" stroke="#4cd6f4" stroke-width="3" stroke-linecap="round"/><path d="M34 15c6 8 10 13 10 18a10 10 0 1 1-20 0c0-5 4-10 10-18z" fill="none" stroke="url(#g)" stroke-width="2.5"/></svg>